<svg xmlns="http://www.w3.org/2000/svg" viewBox="0 0 415 320" role="img" aria-label="17 Matcha Mood Front">
  <title>17 Matcha Mood Front</title>
  <metadata>Vectorized from 17-hasnas-in-a-matcha-mood-logo-back.png; transparent print artwork only.</metadata>
  <path fill="#315E3A" fill-rule="evenodd" d="M253,217 253,220 257,220 261,225 261,245 260,246 261,248 261,255 260,256 261,262 258,266 254,266 253,267 253,270 254,271 283,271 284,270 289,270 297,267 305,260 309,252 310,240 309,239 309,234 307,231 307,229 301,222 294,218 287,216 254,216Z M275,221 284,221 288,223 293,229 295,236 295,250 293,257 286,265 283,266 277,265 274,260 274,222Z M51,217 52,220 57,221 59,224 59,262 56,266 52,266 51,267 51,270 52,271 70,271 71,269 70,266 67,266 64,263 64,238 65,237 71,249 78,269 80,271 83,271 97,236 98,237 98,263 96,266 92,266 91,269 93,271 117,271 118,270 118,267 117,266 114,266 111,263 111,224 113,221 118,221 118,216 99,216 88,246 85,250 83,247 80,237 71,216 52,216Z M216,214 215,215 208,216 202,219 195,225 189,237 189,249 193,259 198,265 209,271 223,272 224,271 231,270 237,267 243,262 246,258 249,251 250,240 249,239 248,232 245,226 239,220 232,216 224,215 223,214Z M218,219 224,220 227,222 231,227 234,235 234,251 233,252 233,255 230,261 226,265 221,267 214,266 208,260 204,248 204,239 205,238 206,230 209,225 213,221Z M149,214 142,216 134,220 127,227 123,236 122,246 123,247 123,251 125,257 133,266 143,271 157,272 158,271 162,271 170,267 174,264 178,259 182,250 182,236 177,225 172,220 161,215Z M148,220 156,220 160,222 165,230 167,237 167,249 166,250 165,257 163,261 159,265 154,267 146,265 141,260 139,256 138,246 137,245 138,234 141,226Z M129,152 128,153 128,168 129,169 132,169 133,168 134,163 138,158 140,157 147,157 148,158 148,168 149,169 149,174 148,175 148,199 146,201 141,201 141,205 168,206 169,205 169,201 164,201 162,199 162,192 161,191 161,188 162,187 162,177 161,176 162,175 162,158 163,157 172,158 175,161 176,167 178,169 180,169 181,168 181,152Z M353,201 350,201 347,198 340,179 338,176 338,174 336,171 336,169 334,166 331,156 328,151 323,151 322,152 321,157 319,160 317,168 313,176 305,199 302,201 296,201 293,198 293,160 295,157 297,157 300,155 299,152 273,152 273,156 274,157 277,157 280,160 280,175 279,176 260,176 258,174 259,159 261,157 265,156 265,153 264,152 239,152 239,157 243,157 245,160 245,198 243,201 239,201 238,202 238,205 239,206 264,206 265,205 265,202 264,201 261,201 258,196 258,183 260,181 279,181 280,182 280,198 277,201 274,201 273,202 273,205 274,206 277,205 285,205 286,206 297,206 298,205 300,206 307,206 308,205 313,205 315,206 316,205 316,201 313,201 311,198 313,191 315,189 329,189 330,190 333,199 331,201 328,201 327,202 327,205 328,206 352,206 353,205Z M321,170 323,171 323,173 325,176 327,182 326,184 317,184 316,183Z M196,156 190,162 185,172 185,186 189,195 195,201 205,206 209,206 210,207 220,206 228,201 230,202 231,205 234,205 234,187 233,186 230,187 230,189 227,195 223,199 218,201 213,201 205,196 202,191 200,184 200,172 201,171 201,168 203,165 203,163 208,158 213,156 218,156 221,158 223,158 227,162 230,170 234,170 234,152 229,152 229,154 227,155 222,152 219,152 218,151 208,151Z M131,202 128,201 124,197 118,179 115,174 109,156 106,151 101,151 100,152 90,179 87,184 84,195 80,201 77,201 76,202 75,201 72,201 69,198 69,159 71,157 76,156 76,152 57,152 56,153 51,167 49,170 48,175 46,178 45,183 43,186 38,175 31,153 30,152 11,152 11,156 14,156 18,159 18,197 16,200 11,201 11,205 29,205 29,201 26,201 23,198 22,195 22,171 23,170 25,173 26,178 28,181 34,198 38,205 41,205 42,204 42,202 48,189 49,184 55,171 56,172 56,198 53,201 50,201 49,202 49,204 51,206 70,206 71,205 89,205 90,206 93,206 94,205 94,202 89,199 89,195 92,189 107,189 108,190 108,192 111,198 109,201 105,201 105,205 106,206 116,206 117,205 119,206 130,206 131,205Z M99,170 101,172 103,179 105,182 104,184 95,184 94,183 97,173Z M234,87 229,95 226,105 218,123 217,128 214,134 211,137 208,137 207,138 207,141 208,142 225,142 226,141 226,138 225,137 222,137 220,134 222,127 224,125 239,125 241,127 243,135 241,137 238,137 237,138 237,141 238,142 263,142 264,141 264,137 261,137 258,134 254,123 251,118 246,103 240,91 240,89 238,87Z M231,105 233,106 234,111 237,117 237,119 234,121 232,120 227,120 226,119 227,114Z M99,88 99,91 100,92 104,92 107,97 107,134 104,137 100,137 99,138 99,141 100,142 126,142 128,140 130,142 150,142 151,141 151,138 150,137 147,137 143,133 143,130 142,129 142,108 143,107 142,104 143,103 145,104 177,142 182,142 183,140 182,98 183,95 186,92 189,92 190,91 190,88 169,88 169,92 172,92 177,96 177,120 176,121 149,88 137,88 136,87 134,88 133,87 131,88 127,88 126,87 124,88Z M128,91 134,93 137,96 137,132 133,137 130,137 129,138 123,137 120,133 120,96 123,93Z"/>
</svg>
